<mxfile host="app.diagrams.net" modified="2024-06-21T03:44:27.048Z" agent="Mozilla/5.0 (Macintosh; Intel Mac OS X 10_15_7) AppleWebKit/537.36 (KHTML, like Gecko) Chrome/126.0.0.0 Safari/537.36" version="24.6.0" etag="iUZ0F2libL4Nzs2aZcWy" type="github">
  <diagram name="第 1 页" id="_wwgzP8huI2rZB7pQ5K5">
    <mxGraphModel>
      <root>
        <mxCell id="0" />
        <mxCell id="1" parent="0" />
      </root>
    </mxGraphModel>
  </diagram>
</mxfile>
